<svg width="40" height="40" viewBox="0 0 40 40" fill="none" xmlns="http://www.w3.org/2000/svg">
<mask id="mask0_665_5380" style="mask-type:luminance" maskUnits="userSpaceOnUse" x="0" y="0" width="40" height="40">
<path d="M40 0H0V40H40V0Z" fill="white"/>
<path d="M21.0938 2.34375H18.9062C18.4316 2.34375 18.0469 2.72851 18.0469 3.20312V7.73438C18.0469 8.20899 18.4316 8.59375 18.9062 8.59375H21.0938C21.5684 8.59375 21.9531 8.20899 21.9531 7.73438V3.20312C21.9531 2.72851 21.5684 2.34375 21.0938 2.34375Z" fill="black"/>
<path d="M21.0938 31.4062H18.9062C18.4316 31.4062 18.0469 31.791 18.0469 32.2656V36.7969C18.0469 37.2715 18.4316 37.6562 18.9062 37.6562H21.0938C21.5684 37.6562 21.9531 37.2715 21.9531 36.7969V32.2656C21.9531 31.791 21.5684 31.4062 21.0938 31.4062Z" fill="black"/>
<path d="M7.73438 18.0469H3.20312C2.72851 18.0469 2.34375 18.4316 2.34375 18.9062V21.0938C2.34375 21.5684 2.72851 21.9531 3.20312 21.9531H7.73438C8.20899 21.9531 8.59375 21.5684 8.59375 21.0938V18.9062C8.59375 18.4316 8.20899 18.0469 7.73438 18.0469Z" fill="black"/>
<path d="M36.8359 18.0469H32.3047C31.8301 18.0469 31.4453 18.4316 31.4453 18.9062V21.0938C31.4453 21.5684 31.8301 21.9531 32.3047 21.9531H36.8359C37.3106 21.9531 37.6953 21.5684 37.6953 21.0938V18.9062C37.6953 18.4316 37.3106 18.0469 36.8359 18.0469Z" fill="black"/>
<path d="M20 26.4844C23.5812 26.4844 26.4844 23.5812 26.4844 20C26.4844 16.4188 23.5812 13.5156 20 13.5156C16.4188 13.5156 13.5156 16.4188 13.5156 20C13.5156 23.5812 16.4188 26.4844 20 26.4844Z" fill="black"/>
<path d="M20 22.5781C21.4239 22.5781 22.5781 21.4239 22.5781 20C22.5781 18.5761 21.4239 17.4219 20 17.4219C18.5761 17.4219 17.4219 18.5761 17.4219 20C17.4219 21.4239 18.5761 22.5781 20 22.5781Z" fill="white"/>
</mask>
<g mask="url(#mask0_665_5380)">
<path d="M20 3.125C29.3198 3.125 36.875 10.6802 36.875 20C36.875 29.3198 29.3198 36.875 20 36.875C10.6802 36.875 3.125 29.3198 3.125 20C3.125 10.6802 10.6802 3.125 20 3.125Z" fill="#A7F212"/>
</g>
</svg>
